HIERARCHY
ROOT Hips
{
	OFFSET 0.000000 0.000000 0.000000
	CHANNELS 6 Xposition Yposition Zposition Zrotation Yrotation Xrotation 
	JOINT LHipJoint
	{
		OFFSET 0.000000 0.000000 0.000000
		CHANNELS 3 Zrotation Yrotation Xrotation
		JOINT LeftUpLeg
		{
			OFFSET 1.363060 -1.794630 0.839290
			CHANNELS 3 Zrotation Yrotation Xrotation
			JOINT LeftLeg
			{
				OFFSET 2.448110 -6.726130 0.000000
				CHANNELS 3 Zrotation Yrotation Xrotation
				JOINT LeftFoot
				{
					OFFSET 2.562200 -7.039590 0.000000
					CHANNELS 3 Zrotation Yrotation Xrotation
					JOINT LeftToeBase
					{
						OFFSET 0.157640 -0.433110 2.322550
						CHANNELS 3 Zrotation Yrotation Xrotation
						End Site
						{
							OFFSET 0.000000 0.000000 0.000000
						}
					}
				}
			}
		}
	}
	JOINT RHipJoint
	{
		OFFSET 0.000000 0.000000 0.000000
		CHANNELS 3 Zrotation Yrotation Xrotation
		JOINT RightUpLeg
		{
			OFFSET -1.305520 -1.794630 0.839290
			CHANNELS 3 Zrotation Yrotation Xrotation
			JOINT RightLeg
			{
				OFFSET -2.542530 -6.985550 0.000000
				CHANNELS 3 Zrotation Yrotation Xrotation
				JOINT RightFoot
				{
					OFFSET -2.568260 -7.056230 0.000000
					CHANNELS 3 Zrotation Yrotation Xrotation
					JOINT RightToeBase
					{
						OFFSET -0.164730 -0.452590 2.363150
						CHANNELS 3 Zrotation Yrotation Xrotation
						End Site
						{
							OFFSET 0.000000 0.000000 0.000000
						}
					}
				}
			}
		}
	}
	JOINT LowerBack
	{
		OFFSET 0.000000 0.000000 0.000000
		CHANNELS 3 Zrotation Yrotation Xrotation
		JOINT Spine
		{
			OFFSET 0.028270 2.035590 -0.193380
			CHANNELS 3 Zrotation Yrotation Xrotation
			JOINT Spine1
			{
				OFFSET 0.056720 2.048850 -0.042750
				CHANNELS 3 Zrotation Yrotation Xrotation
				JOINT Neck
				{
					OFFSET 0.000000 0.000000 0.000000
					CHANNELS 3 Zrotation Yrotation Xrotation
					JOINT Neck1
					{
						OFFSET -0.054170 1.746240 0.172020
						CHANNELS 3 Zrotation Yrotation Xrotation
						JOINT Head
						{
							OFFSET 0.104070 1.761360 -0.123970
							CHANNELS 3 Zrotation Yrotation Xrotation
							End Site
							{
								OFFSET 0.000000 0.000000 0.000000
							}
						}
					}
				}
				JOINT LeftShoulder
				{
					OFFSET 0.000000 0.000000 0.000000
					CHANNELS 3 Zrotation Yrotation Xrotation
					JOINT LeftArm
					{
						OFFSET 3.362410 1.200890 -0.311210
						CHANNELS 3 Zrotation Yrotation Xrotation
						JOINT LeftForeArm
						{
							OFFSET 4.983000 -0.000000 -0.000000
							CHANNELS 3 Zrotation Yrotation Xrotation
							JOINT LeftHand
							{
								OFFSET 3.483560 -0.000000 -0.000000
								CHANNELS 3 Zrotation Yrotation Xrotation
								JOINT LeftFingerBase
								{
									OFFSET 0.000000 0.000000 0.000000
									CHANNELS 3 Zrotation Yrotation Xrotation
									JOINT LeftHandIndex1
									{
										OFFSET 0.715260 -0.000000 -0.000000
										CHANNELS 3 Zrotation Yrotation Xrotation
										End Site
										{
											OFFSET 0.000000 0.000000 0.000000
										}
									}
								}
								JOINT LThumb
								{
									OFFSET 0.000000 0.000000 0.000000
									CHANNELS 3 Zrotation Yrotation Xrotation
									End Site
									{
										OFFSET 0.000000 0.000000 0.000000
									}
								}
							}
						}
					}
				}
				JOINT RightShoulder
				{
					OFFSET 0.000000 0.000000 0.000000
					CHANNELS 3 Zrotation Yrotation Xrotation
					JOINT RightArm
					{
						OFFSET -3.136600 1.374050 -0.404650
						CHANNELS 3 Zrotation Yrotation Xrotation
						JOINT RightForeArm
						{
							OFFSET -5.241900 -0.000000 -0.000000
							CHANNELS 3 Zrotation Yrotation Xrotation
							JOINT RightHand
							{
								OFFSET -3.444170 -0.000000 -0.000000
								CHANNELS 3 Zrotation Yrotation Xrotation
								JOINT RightFingerBase
								{
									OFFSET 0.000000 0.000000 0.000000
									CHANNELS 3 Zrotation Yrotation Xrotation
									JOINT RightHandIndex1
									{
										OFFSET -0.622530 -0.000000 -0.000000
										CHANNELS 3 Zrotation Yrotation Xrotation
										End Site
										{
											OFFSET 0.000000 0.000000 0.000000
										}
									}
								}
								JOINT RThumb
								{
									OFFSET 0.000000 0.000000 0.000000
									CHANNELS 3 Zrotation Yrotation Xrotation
									End Site
									{
										OFFSET 0.000000 0.000000 0.000000
									}
								}
							}
						}
					}
				}
			}
		}
	}
}
MOTION
Frames: 12
Frame Time: 0.008333
-1.631958 17.419764 -25.190986 -2.925590 5.592831 11.077497 -4.942357 -3.797993 -2.928503 -6.605261 -7.047053 -40.907139 1.429762 10.369093 28.239006 -1.653041 8.551670 5.698916 1.027900 -6.449300 -18.093800 4.658807 1.890888 1.753159 22.797820 -3.046798 2.285194 -0.155244 -6.485008 16.330829 7.481862 -28.978402 -12.339401 -0.438900 4.251300 -11.784600 4.795759 1.558342 10.251143 2.626258 2.673891 -2.419662 -0.545418 1.432094 -5.887565 4.864190 -0.182240 -19.296896 -4.257803 -1.513720 10.830811 -5.524600 -1.057800 8.926800 3.802042 -1.474287 0.229921 -92.077962 12.359892 18.239880 15.622739 -24.704435 -3.211926 0.232775 0.411025 -9.081081 15.011078 1.357260 0.256400 -7.125000 0.000000 0.000000 -9.407800 30.909100 3.278400 -2.844384 1.479133 0.000229 86.298761 3.242282 16.178882 -12.870870 21.703825 -2.516002 0.104685 -0.495048 -6.372842 -17.220275 -4.804031 1.327800 7.125000 0.000000 0.000000 7.720900 -34.376600 2.028400 
-1.634155 17.411176 -25.067755 -3.157634 5.621933 11.138568 -4.976555 -3.851151 -3.007954 -6.152833 -7.464662 -40.978548 1.072684 9.776841 26.338760 -1.736044 8.962309 6.155976 1.021100 -6.428600 -18.033100 4.672346 1.915402 1.756988 23.069093 -3.184935 2.218756 -0.227873 -6.672546 16.849032 7.525009 -29.083015 -11.787943 -0.485600 4.468400 -12.398300 4.944453 1.670253 10.611762 2.659027 2.860007 -2.264098 -0.601234 1.522140 -5.865737 4.926824 -0.208933 -19.617505 -4.253024 -1.610112 10.551579 -5.545100 -1.121900 8.870700 3.811076 -1.477540 0.231506 -91.948638 12.317718 17.891241 15.259592 -24.202088 -3.071210 0.234341 0.404045 -8.442181 14.824892 1.330882 0.247400 -7.125000 0.000000 0.000000 -9.549300 30.883200 3.334900 -2.835935 1.460560 -0.005743 86.122305 4.067371 16.444184 -13.290108 22.265527 -2.654206 0.108768 -0.496986 -6.959138 -17.130411 -4.448079 1.209800 7.125000 0.000000 0.000000 7.754400 -34.001200 2.108600 
-1.636252 17.400291 -24.941329 -3.377857 5.610738 11.169156 -5.006051 -3.896883 -3.082184 -5.699556 -7.864249 -41.015476 0.766904 9.224141 24.588995 -1.878926 9.534897 6.342788 0.992000 -6.338900 -17.770900 4.682821 1.938424 1.757741 23.307310 -3.311333 2.150157 -0.314344 -6.892741 17.461179 7.554737 -29.150222 -11.187263 -0.534000 4.682500 -13.005100 5.059026 1.798628 10.984489 2.682066 3.063039 -2.056261 -0.654067 1.620684 -5.778028 4.978750 -0.247964 -20.118909 -4.216351 -1.715957 10.323998 -5.559600 -1.189300 8.867000 3.820098 -1.472106 0.230916 -91.799125 12.165360 17.515721 14.889658 -23.686455 -2.930710 0.235658 0.395352 -7.731599 14.602804 1.271814 0.229900 -7.125000 0.000000 0.000000 -9.714900 30.824900 3.408000 -2.828486 1.445518 -0.011863 85.953404 5.019674 16.577874 -13.696502 22.805537 -2.792813 0.112474 -0.498925 -7.445638 -17.056586 -4.132689 1.106600 7.125000 0.000000 0.000000 7.779800 -33.668900 2.178800 
-1.638149 17.386909 -24.811008 -3.594192 5.568599 11.178192 -5.027822 -3.935791 -3.151609 -5.273028 -8.204868 -41.054737 0.511359 8.720905 23.012397 -2.067304 10.223005 6.345102 0.950100 -6.207400 -17.387300 4.689371 1.959079 1.757394 23.519766 -3.435970 2.095950 -0.409438 -7.127917 18.118140 7.565057 -29.164149 -10.529925 -0.582700 4.887900 -13.589000 5.152855 1.929856 11.361523 2.700064 3.267163 -1.825910 -0.704429 1.719575 -5.661228 5.053374 -0.270386 -20.730425 -4.177724 -1.798384 10.157268 -5.580100 -1.243300 8.908500 3.828348 -1.461128 0.229421 -91.648815 11.986947 17.089032 14.538436 -23.192675 -2.799913 0.236303 0.387136 -7.007320 14.373495 1.241405 0.219800 -7.125000 0.000000 0.000000 -9.888700 30.795100 3.477700 -2.820578 1.433893 -0.017659 85.788784 6.034415 16.689951 -14.113603 23.355571 -2.940433 0.117628 -0.502055 -7.961048 -17.071077 -3.968011 1.055600 7.125000 0.000000 0.000000 7.749500 -33.494100 2.203200 
-1.639747 17.371430 -24.676393 -3.784885 5.497826 11.167014 -5.042501 -3.967692 -3.214556 -4.921304 -8.459664 -41.111265 0.301170 8.274226 21.627122 -2.284356 10.964270 6.175888 0.915400 -6.096200 -17.063900 4.692003 1.975725 1.758042 23.685633 -3.559363 2.085286 -0.507821 -7.361922 18.773148 7.557694 -29.131905 -9.814295 -0.630700 5.081600 -14.141400 5.195297 2.050568 11.733054 2.717747 3.450991 -1.592262 -0.723607 1.809457 -5.541635 5.064526 -0.310041 -21.283019 -4.075126 -1.886221 10.000515 -5.564100 -1.294800 8.942900 3.834209 -1.447113 0.227396 -91.526364 11.835568 16.561899 14.197407 -22.709777 -2.675404 0.236270 0.378922 -6.278329 14.125446 1.220407 0.211900 -7.125000 0.000000 0.000000 -10.077400 30.774500 3.551000 -2.813122 1.424971 -0.022682 85.616225 7.041425 16.829703 -14.539804 23.913315 -3.096434 0.123745 -0.505994 -8.491037 -17.168624 -3.910968 1.042600 7.125000 0.000000 0.000000 7.663000 -33.432500 2.189800 
-1.640446 17.354554 -24.535586 -3.929905 5.400997 11.148017 -5.051010 -3.993503 -3.270200 -4.680956 -8.614830 -41.199398 0.131303 7.889541 20.447897 -2.508720 11.688507 5.867796 0.886900 -6.002900 -16.793000 4.690305 1.987066 1.761825 23.780523 -3.694613 2.130762 -0.603454 -7.580738 19.387259 7.527531 -29.039698 -9.078147 -0.676000 5.257300 -14.643900 5.170838 2.153976 12.045019 2.733736 3.599144 -1.377490 -0.703522 1.884276 -5.422227 5.082363 -0.318710 -21.668402 -3.977665 -1.930963 9.843208 -5.541600 -1.322400 8.949900 3.838312 -1.437077 0.227392 -91.442707 11.795856 15.939578 13.888628 -22.269490 -2.564812 0.234293 0.373520 -5.604951 13.859130 1.301312 0.227900 -7.125000 0.000000 0.000000 -10.290800 30.854100 3.608400 -2.804755 1.414966 -0.026630 85.437813 7.968438 17.040789 -14.972491 24.474747 -3.259705 0.130526 -0.510661 -9.037792 -17.361760 -3.941595 1.062500 7.125000 0.000000 0.000000 7.508200 -33.463700 2.139200 
-1.641145 17.335380 -24.388588 -4.037980 5.306273 11.137777 -5.051064 -4.015431 -3.319365 -4.557094 -8.661910 -41.348259 -0.002692 7.571916 19.489944 -2.708022 12.294022 5.453549 0.873000 -5.957000 -16.659600 4.684183 1.993391 1.769348 23.832131 -3.840321 2.238792 -0.689267 -7.768804 19.914829 7.481374 -28.909070 -8.350301 -0.718600 5.417000 -15.102000 5.081729 2.240878 12.298052 2.754560 3.713696 -1.198285 -0.636920 1.945504 -5.329200 5.070627 -0.325576 -21.810568 -3.867039 -1.973378 9.597232 -5.499100 -1.348900 8.878600 3.841601 -1.436383 0.229832 -91.397405 11.866593 15.227215 13.587435 -21.837919 -2.459156 0.232120 0.368899 -4.948007 13.600167 1.404455 0.248400 -7.125000 0.000000 0.000000 -10.501200 30.955400 3.658500 -2.795329 1.399900 -0.029691 85.253279 8.774102 17.324825 -15.420795 25.051197 -3.433826 0.138262 -0.516044 -9.646395 -17.651343 -4.058214 1.115900 7.125000 0.000000 0.000000 7.283700 -33.586200 2.052500 
-1.640945 17.314608 -24.234800 -4.074710 5.220355 11.162836 -5.044502 -4.033762 -3.362167 -4.578846 -8.629288 -41.574366 -0.103986 7.328177 18.770419 -2.865810 12.734943 4.947020 0.871500 -5.951900 -16.645000 4.674689 1.994918 1.782300 23.799455 -4.023163 2.398369 -0.759175 -7.913242 20.318788 7.417915 -28.732300 -7.628038 -0.761100 5.571300 -15.545500 4.902172 2.301493 12.454830 2.774795 3.775876 -1.063493 -0.511439 1.983688 -5.252804 4.992924 -0.338138 -21.732933 -3.714188 -2.001617 9.344940 -5.420700 -1.363800 8.767700 3.842463 -1.438359 0.233088 -91.401686 12.062195 14.420774 13.299702 -21.424115 -2.360374 0.229026 0.366935 -4.343134 13.349362 1.595091 0.287900 -7.125000 0.000000 0.000000 -10.715300 31.142200 3.686600 -2.786662 1.386205 -0.031750 85.059940 9.448598 17.674193 -15.864362 25.616097 -3.609768 0.144852 -0.521020 -10.221117 -17.972707 -4.109366 1.151600 7.125000 0.000000 0.000000 7.026700 -33.642500 1.969500 
-1.639947 17.291940 -24.072523 -4.067936 5.139059 11.215905 -5.030139 -4.048789 -3.398638 -4.698393 -8.534386 -41.848973 -0.173833 7.163478 18.299971 -2.966311 12.971212 4.386673 0.869500 -5.945300 -16.625800 4.661766 1.991284 1.799393 23.715727 -4.237305 2.637479 -0.808610 -8.006864 20.573676 7.344178 -28.533498 -6.916767 -0.804200 5.723400 -15.984000 4.679147 2.363784 12.525245 2.781333 3.826030 -0.932857 -0.378271 2.018370 -5.140303 4.929927 -0.335059 -21.609220 -3.576464 -2.018283 9.034757 -5.347200 -1.376600 8.627600 3.844355 -1.445034 0.237320 -91.395008 12.253323 13.591343 12.998599 -20.989911 -2.259792 0.227333 0.364880 -3.733561 13.147227 1.774241 0.324400 -7.125000 0.000000 0.000000 -10.891800 31.318000 3.702400 -2.778362 1.368481 -0.033657 84.887845 10.090854 17.973883 -16.282884 26.144267 -3.779792 0.149745 -0.525578 -10.754923 -18.314102 -4.067135 1.158500 7.125000 0.000000 0.000000 6.745200 -33.602700 1.896200 
-1.637550 17.267373 -23.901358 -4.035668 5.064185 11.293421 -5.008441 -4.057920 -3.428573 -4.850305 -8.448518 -42.141465 -0.209336 7.087168 18.091038 -3.020380 13.057711 3.828472 0.870900 -5.950000 -16.639500 4.646369 1.983771 1.821053 23.596844 -4.501903 2.964890 -0.834245 -8.043382 20.658745 7.258380 -28.308302 -6.190922 -0.852500 5.888400 -16.461000 4.437596 2.423304 12.527601 2.774623 3.866242 -0.816788 -0.244440 2.046261 -5.009994 4.646367 -0.446822 -21.559137 -3.223590 -2.126133 8.757653 -5.167600 -1.422000 8.509900 3.841513 -1.436819 0.236439 -91.369264 12.443437 12.740442 12.675756 -20.520897 -2.154681 0.227572 0.362024 -3.095560 12.999617 1.919818 0.353700 -7.125000 0.000000 0.000000 -11.023200 31.461700 3.709900 -2.776055 1.364828 -0.034769 84.737013 10.673083 18.220661 -16.678905 26.641355 -3.944106 0.152962 -0.529562 -11.231921 -18.644695 -3.920097 1.129000 7.125000 0.000000 0.000000 6.463500 -33.453500 1.839600 
-1.633755 17.241709 -23.721904 -3.993677 4.984556 11.395840 -4.979193 -4.060253 -3.451945 -4.949939 -8.454920 -42.423818 -0.206758 7.109092 18.162344 -3.046377 13.050169 3.217843 0.872700 -5.956000 -16.656900 4.629147 1.971656 1.846635 23.460634 -4.793284 3.384226 -0.834708 -8.019857 20.561044 7.168898 -28.087396 -5.414908 -0.905700 6.064800 -16.972600 4.190439 2.487648 12.480831 2.758408 3.910999 -0.725550 -0.116329 2.074197 -4.886483 4.213350 -0.643375 -21.560331 -2.705170 -2.302246 8.522867 -4.911300 -1.489000 8.416600 3.835126 -1.416722 0.231254 -91.326569 12.639005 11.844713 12.329689 -20.013929 -2.044619 0.229333 0.357643 -2.400208 12.879650 2.016955 0.372500 -7.125000 0.000000 0.000000 -11.128300 31.558200 3.720100 -2.778834 1.373840 -0.034951 84.609228 11.178307 18.397835 -17.049444 27.103901 -4.100637 0.155059 -0.532903 -11.646536 -18.932042 -3.706062 1.072200 7.125000 0.000000 0.000000 6.212200 -33.232700 1.800700 
-1.627264 17.215245 -23.533164 -3.950751 4.893279 11.515731 -4.943227 -4.054651 -3.467461 -4.970361 -8.579310 -42.674167 -0.163927 7.233379 18.522821 -3.047676 12.961593 2.542108 0.874100 -5.960800 -16.670700 4.610017 1.954512 1.876092 23.302690 -5.120110 3.900191 -0.811549 -7.938822 20.288079 7.069755 -27.857366 -4.557736 -0.966500 6.259400 -17.539000 3.965693 2.560073 12.395855 2.727725 3.969802 -0.671393 -0.018182 2.105695 -4.788436 3.658703 -0.922866 -21.632876 -2.065654 -2.541750 8.399434 -4.602500 -1.574400 8.378100 3.825002 -1.383463 0.221347 -91.258085 12.862594 10.902170 11.962843 -19.470559 -1.930926 0.232716 0.350982 -1.597029 12.780663 2.047350 0.377100 -7.125000 0.000000 0.000000 -11.209500 31.590000 3.739400 -2.786838 1.398788 -0.033466 84.511082 11.555932 18.529518 -17.422205 27.567410 -4.261645 0.157912 -0.536327 -12.057730 -19.221583 -3.556447 1.035700 7.125000 0.000000 0.000000 5.965500 -33.078600 1.750800 
